<?xml version="1.0" ?><!-- Uploaded to: SVG Repo, www.svgrepo.com, Generator: SVG Repo Mixer Tools -->
<svg width="800px" height="800px" viewBox="0 0 128 128" data-name="Layer 2" id="Layer_2" xmlns="http://www.w3.org/2000/svg"><defs><style>.cls-1{fill:#995323;}.cls-2{fill:#f1edd8;}.cls-3{fill:#553f07;}.cls-4{fill:#ea563a;}.cls-5{fill:#f1e175;}</style></defs><title/><rect class="cls-1" height="79.03" width="92.7" x="17.65" y="24.49"/><path class="cls-2" d="M52,41H76a23,23,0,0,1,23,23v39.47a0,0,0,0,1,0,0H29.05a0,0,0,0,1,0,0V64A23,23,0,0,1,52,41Z"/><rect class="cls-2" height="7.6" width="101.82" x="13.09" y="103.51"/><rect class="cls-2" height="7.6" width="101.82" x="13.09" y="16.89"/><path class="cls-3" d="M53.81,47.52H74.19a19.6,19.6,0,0,1,19.6,19.6v36.4a0,0,0,0,1,0,0H34.21a0,0,0,0,1,0,0V67.12a19.6,19.6,0,0,1,19.6-19.6Z"/><rect class="cls-4" height="4.94" width="11.41" x="17.65" y="32.15"/><rect class="cls-4" height="4.94" width="11.41" x="29.05" y="24.49"/><rect class="cls-4" height="4.94" width="11.41" x="17.65" y="83.68"/><rect class="cls-4" height="4.94" width="11.41" x="98.96" y="56.4"/><rect class="cls-4" height="4.94" width="11.41" x="77.55" y="32.15"/><rect class="cls-4" height="4.94" width="5.7" x="104.66" y="93.26"/><path class="cls-4" d="M46.51,103.51s-1-7.5,2.25-13.84a8.5,8.5,0,0,0,0-8h0s6-.72,8.09,3.73c0,0,2.05-10.6,11-11.81,0,0-5.06,7.26,2.17,12.55a5.41,5.41,0,0,1,5.42-4.47s-2.53,1.95,1.45,4.47S82.54,99,80.13,103.51Z"/><path class="cls-5" d="M53.5,103.51s-1.45-5.2,1.2-9.06l-1.6-4.22,5.7,2.41s1.57-5.27,4.34-6.49c0,0,1.2,5.77,4.34,6.37,0,0,3.49-4.82,6.38-4.7,0,0-2.28,3.8.36,6.27,3.86,3.62.24,9.42.24,9.42Z"/></svg>