<?xml version="1.0" ?>

<!-- Uploaded to: SVG Repo, www.svgrepo.com, Generator: SVG Repo Mixer Tools -->
<svg width="32px" height="32px" viewBox="0 0 64 64" xmlns="http://www.w3.org/2000/svg">

<g id="flat">

<rect height="44" style="fill:#87ced9" width="2" x="31" y="10"/>

<rect height="2" style="fill:#87ced9" transform="translate(-11.776 20.239) rotate(-29.995)" width="43.999" x="9.886" y="31.097"/>

<rect height="44" style="fill:#87ced9" transform="translate(-11.713 43.28) rotate(-60)" width="2" x="30.625" y="9.783"/>

<path d="M32,11a1,1,0,0,1-.555-.168l-3-2A1,1,0,0,1,28,8V5a1,1,0,0,1,.445-.832l3-2a1,1,0,0,1,1.11,0l3,2A1,1,0,0,1,36,5V8a1,1,0,0,1-.445.832l-3,2A1,1,0,0,1,32,11ZM30,7.465,32,8.8l2-1.333V5.535L32,4.2,30,5.535Z" style="fill:#a7e1eb"/>

<path d="M32,62a1,1,0,0,1-.555-.168l-3-2A1,1,0,0,1,28,59V56a1,1,0,0,1,.445-.832l3-2a1,1,0,0,1,1.11,0l3,2A1,1,0,0,1,36,56v3a1,1,0,0,1-.445.832l-3,2A1,1,0,0,1,32,62Zm-2-3.535L32,59.8l2-1.333v-1.93L32,55.2l-2,1.333Z" style="fill:#a7e1eb"/>

<path d="M32,17a1,1,0,0,1-.641-.231l-6-5,1.282-1.538L32,14.7l5.359-4.467,1.282,1.538-6,5A1,1,0,0,1,32,17Z" style="fill:#a7e1eb"/>

<path d="M37.359,53.769,32,49.3l-5.359,4.467-1.282-1.538,6-5a1,1,0,0,1,1.282,0l6,5Z" style="fill:#a7e1eb"/>

<path d="M10,49.2a1,1,0,0,1-.443-.1l-3.233-1.6a1,1,0,0,1-.555-.961l.233-3.6a1,1,0,0,1,.5-.8l2.6-1.5a1,1,0,0,1,.943-.03l3.232,1.6a1,1,0,0,1,.555.961l-.232,3.6a1,1,0,0,1-.5.8l-2.6,1.5A1,1,0,0,1,10,49.2ZM7.812,46l2.155,1.065,1.67-.964.155-2.4L9.638,42.634,7.967,43.6Z" style="fill:#a7e1eb"/>

<path d="M54.17,23.7a1,1,0,0,1-.443-.1l-3.233-1.6a1,1,0,0,1-.555-.961l.233-3.6a1,1,0,0,1,.5-.8l2.6-1.5a1,1,0,0,1,.943-.03l3.232,1.6a1,1,0,0,1,.555.961l-.232,3.6a1,1,0,0,1-.5.8l-2.6,1.5A1,1,0,0,1,54.17,23.7Zm-2.191-3.2,2.155,1.065L55.8,20.6l.155-2.4-2.154-1.064-1.671.965Z" style="fill:#a7e1eb"/>

<path d="M17.684,47.965l-1.971-.342L16.9,40.749l-6.548-2.408.689-1.877,7.331,2.7a1,1,0,0,1,.641,1.11Z" style="fill:#a7e1eb"/>

<path d="M52.728,27.732l-7.332-2.7a1,1,0,0,1-.64-1.109l1.331-7.7,1.971.342-1.19,6.874,6.549,2.408Z" style="fill:#a7e1eb"/>

<path d="M53.508,48.882a1,1,0,0,1-.5-.134l-2.6-1.5a1,1,0,0,1-.5-.8l-.231-3.6a1,1,0,0,1,.554-.961l3.232-1.6a1,1,0,0,1,.943.03l2.6,1.5a1,1,0,0,1,.5.8l.231,3.6a1,1,0,0,1-.554.961l-3.232,1.6A.987.987,0,0,1,53.508,48.882Zm-1.635-3.1,1.671.965L55.7,45.683l-.154-2.4-1.671-.965-2.154,1.065Z" style="fill:#a7e1eb"/>

<path d="M9.341,23.382a1,1,0,0,1-.5-.134l-2.6-1.5a1,1,0,0,1-.5-.8l-.231-3.6a1,1,0,0,1,.554-.961l3.232-1.6a1,1,0,0,1,.943.03l2.6,1.5a1,1,0,0,1,.5.8l.231,3.6a1,1,0,0,1-.554.961l-3.232,1.6A.987.987,0,0,1,9.341,23.382Zm-1.635-3.1,1.671.965,2.154-1.065-.154-2.4-1.671-.965L7.552,17.884Z" style="fill:#a7e1eb"/>

<path d="M45.826,47.649l-1.33-7.7a1,1,0,0,1,.64-1.108l7.33-2.7.691,1.877-6.549,2.409L47.8,47.31Z" style="fill:#a7e1eb"/>

<path d="M10.784,27.418l-.691-1.877,6.549-2.408-1.189-6.876,1.971-.34,1.33,7.7a1,1,0,0,1-.64,1.109Z" style="fill:#a7e1eb"/>

<path d="M22,49a1,1,0,0,1-.994-1.112L22.213,37.21l-9.621-4.3a1,1,0,0,1-.013-1.82L22.471,26.5,22,16.045a1,1,0,0,1,1.577-.861L32,21.149l8.422-5.965A1,1,0,0,1,42,16.1l-.972,10.261L51.415,31.09a1,1,0,0,1-.019,1.828L41.177,37.323l.82,10.6a1,1,0,0,1-1.575.893L31.971,42.83l-9.434,6.013A1,1,0,0,1,22,49ZM15.413,31.982l8.284,3.7a1,1,0,0,1,.586,1.025L23.229,46.03l8.234-5.248a1,1,0,0,1,1.115.027l7.261,5.143-.711-9.187a1,1,0,0,1,.6-.995l8.8-3.8-8.986-4.094a1,1,0,0,1-.58-1l.833-8.8-7.221,5.115a1,1,0,0,1-1.156,0L24.091,18,24.5,27.08a1,1,0,0,1-.578.952Z" style="fill:#a7e1eb"/>

</g>

</svg>